:SAMPLES-PER-SECOND 30
:FULLY-SPECIFIED
:DEGREES
120
root  -21.8848 40.1611 -12.0069 -5.19377 69.7615 -5.22913
RightUpLeg  -9.61805 -9.16261 0.563926
RightLeg  21.1029 -1.41571 0.326661
RightFoot  -7.69804 0.043486 -2.9857
RightToes  0.00048216 0.542163 -0.142577
Spine  15.7151 -8.21234 -3.10853
Spine1  7.17096 -12.3879 13.8694
HEad  -1.54403 20.783 -10.2496
LeftShoulder1  9.74525 -16.2731 -42.8263
LeftArm  35.1339 -31.9917 -60.0592
LeftForeArm  0.624326 -29.4682 -6.37007
LeftHand  -0.25398 0.0180481 5.50724
RightShoulder  4.17131 7.88108 30.6857
RightArm  -18.2062 -39.2936 31.4699
RightForeArm  18.9185 77.555 83.3961
RightHand  -1.42664 2.38091 -21.3501
LeftUpLeg  -21.0693 20.9421 -0.0108138
LeftLeg  54.2268 3.76568 6.07014
LeftFoot  1.18345 0.170207 -1.63133
LeftToes  1.06248e-005 4.65856e-005 -8.18499e-006
121
root  -20.3997 40.334 -11.906 -2.9832 68.8642 -2.98486
RightUpLeg  -6.36525 -8.46787 -1.31149
RightLeg  19.0639 -0.992977 0.664409
RightFoot  -8.61886 -0.0135302 -1.89168
RightToes  0.00048216 0.542163 -0.142577
Spine  15.2159 -7.61593 -3.76446
Spine1  7.51295 -11.8083 13.2405
HEad  -1.40501 20.4103 -9.97008
LeftShoulder1  9.651 -16.1709 -42.6202
LeftArm  34.6729 -32.1071 -59.3721
LeftForeArm  0.942764 -30.0183 -6.48925
LeftHand  -0.25398 0.0180481 5.50724
RightShoulder  4.24469 8.07596 30.7032
RightArm  -17.2358 -38.9466 31.6886
RightForeArm  16.72 77.4866 80.8617
RightHand  -1.50961 2.8281 -21.38
LeftUpLeg  -23.4193 22.4496 -0.502838
LeftLeg  45.4862 4.33709 5.09879
LeftFoot  -1.02934 0.197292 -2.11082
LeftToes  1.06248e-005 4.65856e-005 -8.18499e-006
122
root  -18.8821 40.3768 -11.8322 -2.04314 67.8952 -2.31183
RightUpLeg  -3.56986 -8.13582 -2.63048
RightLeg  17.4843 -0.457055 0.855978
RightFoot  -9.69398 -0.0462758 -1.39035
RightToes  0.00048216 0.542163 -0.142577
Spine  14.455 -7.20015 -3.94522
Spine1  7.90782 -11.3762 12.753
HEad  -1.18634 20.3362 -9.7336
LeftShoulder1  9.51962 -16.0559 -42.2646
LeftArm  33.6287 -32.1175 -58.7891
LeftForeArm  1.6043 -30.8228 -6.65555
LeftHand  -0.25398 0.0180481 5.50724
RightShoulder  4.27889 8.16633 30.7126
RightArm  -16.1737 -38.3803 31.7
RightForeArm  15.221 77.426 79.1474
RightHand  -1.61559 3.37389 -21.4747
LeftUpLeg  -24.513 24.736 -0.904433
LeftLeg  33.5188 4.36581 3.77598
LeftFoot  -1.74826 0.186909 -2.10597
LeftToes  1.06248e-005 4.65856e-005 -8.18499e-006
123
root  -17.3286 40.3849 -11.7857 -1.10992 66.7196 -1.7594
RightUpLeg  -0.719212 -8.08261 -4.09435
RightLeg  15.4036 0.873661 1.1265
RightFoot  -10.5907 -0.066299 -0.749485
RightToes  0.00048216 0.542163 -0.142577
Spine  13.5938 -6.86492 -4.36964
Spine1  8.46865 -10.9423 11.9428
HEad  -0.924814 20.5174 -9.65586
LeftShoulder1  9.34312 -15.8624 -41.8696
LeftArm  32.2502 -32.0433 -58.4333
LeftForeArm  2.54405 -31.8764 -6.87411
LeftHand  -0.25398 0.0180481 5.50724
RightShoulder  4.26753 8.13606 30.7103
RightArm  -15.1886 -37.6307 31.5423
RightForeArm  14.4099 77.389 78.247
RightHand  -1.68755 3.7497 -21.5205
LeftUpLeg  -23.8091 25.1241 -0.294506
LeftLeg  19.0636 5.98852 1.18702
LeftFoot  -0.959291 0.173752 -1.84244
LeftToes  1.06248e-005 4.65856e-005 -8.18499e-006
124
root  -15.7392 40.2946 -11.7811 -0.341156 65.423 -0.994888
RightUpLeg  2.35646 -8.38315 -5.97511
RightLeg  13.5797 3.10545 1.35368
RightFoot  -11.7555 -0.0740566 1.04915
RightToes  0.00048216 0.542163 -0.142577
Spine  13.0703 -6.57031 -5.11418
Spine1  9.14823 -10.505 11.0339
HEad  -0.530444 20.7979 -9.57349
LeftShoulder1  9.16211 -15.6172 -41.5646
LeftArm  31.1826 -32.0574 -58.1805
LeftForeArm  3.50943 -33.1055 -7.14341
LeftHand  -0.25398 0.0180481 5.50724
RightShoulder  4.26604 8.12484 30.7332
RightArm  -14.659 -36.7881 31.4256
RightForeArm  13.4837 77.3515 77.5007
RightHand  -1.73088 3.97283 -21.5534
LeftUpLeg  -20.007 15.4391 5.3055
LeftLeg  4.35868 18.3735 -3.97784
LeftFoot  -0.650538 0.222909 -2.3545
LeftToes  1.06248e-005 4.65856e-005 -8.18499e-006
125
root  -14.0607 40.0348 -11.8356 -0.246109 64.2866 -0.349792
RightUpLeg  5.23147 -8.81742 -8.10513
RightLeg  13.619 5.01656 1.27503
RightFoot  -13.3502 -0.0404889 2.9267
RightToes  0.00048216 0.542163 -0.142577
Spine  12.8911 -6.31653 -5.71294
Spine1  9.72707 -10.1784 10.4815
HEad  0.142178 20.9694 -9.22202
LeftShoulder1  9.02948 -15.4866 -41.2198
LeftArm  30.8215 -32.2456 -58.0153
LeftForeArm  4.15953 -34.1722 -7.39432
LeftHand  -0.25398 0.0180481 5.50724
RightShoulder  4.31611 8.24175 30.795
RightArm  -14.8362 -36.1309 31.4458
RightForeArm  12.4095 77.3077 76.7072
RightHand  -1.76477 4.156 -21.5597
LeftUpLeg  -17.4241 8.05097 8.57242
LeftLeg  -5.93812 28.555 -8.24866
LeftFoot  -2.23284 0.280742 -3.35294
LeftToes  1.06248e-005 4.65856e-005 -8.18499e-006
126
root  -12.2723 39.7182 -11.9479 -0.147614 63.6604 0.561737
RightUpLeg  7.7464 -8.59469 -10.4668
RightLeg  15.1003 5.7701 0.956643
RightFoot  -14.59 0.0256586 4.35799
RightToes  0.00048216 0.542163 -0.142577
Spine  12.8386 -6.25851 -6.42666
Spine1  10.2143 -10.0487 10.0176
HEad  1.13887 20.9474 -8.6422
LeftShoulder1  8.95204 -15.5097 -40.7825
LeftArm  31.26 -32.5873 -58.1594
LeftForeArm  4.1811 -34.5651 -7.5014
LeftHand  -0.25398 0.0180481 5.50724
RightShoulder  4.37338 8.37815 30.8562
RightArm  -15.2847 -35.7816 31.2549
RightForeArm  11.6504 77.2737 76.1035
RightHand  -1.76222 4.19594 -21.4443
LeftUpLeg  -17.2062 8.15948 7.79739
LeftLeg  -6.13926 30.918 -8.39602
LeftFoot  -3.7876 0.221991 -3.02712
LeftToes  1.06248e-005 4.65856e-005 -8.18499e-006
127
root  -10.3866 39.3928 -12.1173 0.443741 63.6752 2.03853
RightUpLeg  9.84221 -6.38714 -13.001
RightLeg  17.5411 5.47559 0.995997
RightFoot  -15.1405 0.16291 7.8449
RightToes  0.00048216 0.542163 -0.142577
Spine  12.8782 -6.41972 -7.60967
Spine1  10.48 -10.2086 9.7252
HEad  2.4377 20.7639 -8.04758
LeftShoulder1  8.91724 -15.5287 -40.5659
LeftArm  32.4938 -32.9757 -58.8035
LeftForeArm  3.51006 -34.0039 -7.38649
LeftHand  -0.25398 0.0180481 5.50724
RightShoulder  4.34707 8.313 30.836
RightArm  -15.2513 -35.4356 30.4205
RightForeArm  10.1785 77.2033 74.9423
RightHand  -1.68394 3.90375 -21.1367
LeftUpLeg  -17.3881 8.42977 6.11536
LeftLeg  -1.47478 31.0417 -7.03044
LeftFoot  -0.950528 0.000491135 -0.0741417
LeftToes  1.06248e-005 4.65856e-005 -8.18499e-006
128
root  -8.4511 39.017 -12.3408 1.45117 64.2269 4.00539
RightUpLeg  10.7897 -2.14878 -15.3567
RightLeg  22.2995 3.87708 1.54472
RightFoot  -14.0685 0.215847 14.0793
RightToes  0.00048216 0.542163 -0.142577
Spine  13.1982 -6.56037 -9.1321
Spine1  10.1454 -10.6954 10.347
HEad  3.87873 20.3108 -7.42405
LeftShoulder1  8.94591 -15.5025 -40.7688
LeftArm  34.3407 -33.2609 -59.9243
LeftForeArm  2.45105 -32.7168 -7.10015
LeftHand  -0.25398 0.0180481 5.50724
RightShoulder  4.21068 7.99769 30.6556
RightArm  -14.8709 -34.8269 29.2009
RightForeArm  6.44392 77.0049 72.1164
RightHand  -1.55851 3.39098 -20.7033
LeftUpLeg  -19.1897 12.225 2.44041
LeftLeg  7.21122 24.4451 -3.12999
LeftFoot  3.92095 -0.465125 3.29327
LeftToes  1.06248e-005 4.65856e-005 -8.18499e-006
129
root  -6.58893 38.7674 -12.6021 3.43205 64.9898 6.95602
RightUpLeg  9.18747 1.03205 -17.4409
RightLeg  30.6818 1.53992 0.647748
RightFoot  -7.94063 -0.580939 17.9878
RightToes  0.00048216 0.542163 -0.142577
Spine  14.113 -6.53195 -11.0886
Spine1  9.44728 -11.2259 11.4632
HEad  4.96527 19.4501 -6.76895
LeftShoulder1  9.04771 -15.6017 -41.0396
LeftArm  36.3162 -33.4971 -61.3046
LeftForeArm  1.44554 -31.2915 -6.78362
LeftHand  -0.25398 0.0180481 5.50724
RightShoulder  4.05275 7.66595 30.325
RightArm  -15.1794 -34.1568 28.4223
RightForeArm  1.44697 76.6875 68.3903
RightHand  -1.45523 2.96308 -20.319
LeftUpLeg  -21.3739 21.8748 -4.47051
LeftLeg  14.2509 10.7832 0.903385
LeftFoot  6.25755 -0.936304 5.85235
LeftToes  1.06248e-005 4.65856e-005 -8.18499e-006
130
root  -4.85535 38.6904 -12.8888 5.87863 65.0999 10.4305
RightUpLeg  4.15315 5.14567 -18.4482
RightLeg  42.2561 -2.35065 -2.60235
RightFoot  4.30321 -1.93339 14.8102
RightToes  0.00048216 0.542163 -0.142577
Spine  15.3534 -6.26561 -12.74
Spine1  9.09111 -11.3571 11.854
HEad  5.22789 18.5401 -6.53838
LeftShoulder1  9.14743 -15.8475 -40.9577
LeftArm  37.8522 -34.0215 -62.5835
LeftForeArm  0.724517 -30.2213 -6.55147
LeftHand  -0.25398 0.0180481 5.50724
RightShoulder  3.98636 7.59571 29.9514
RightArm  -16.4532 -33.5386 28.4245
RightForeArm  -2.28848 76.3957 65.5101
RightHand  -1.3854 2.66112 -20.0642
LeftUpLeg  -21.5096 25.1228 -8.65961
LeftLeg  18.8859 6.41918 3.05718
LeftFoot  3.70488 -0.988871 7.31356
LeftToes  1.06248e-005 4.65856e-005 -8.18499e-006
